<?xml version="1.0" standalone="no"?>
<!DOCTYPE svg PUBLIC "-//W3C//DTD SVG 20010904//EN"
 "http://www.w3.org/TR/2001/REC-SVG-20010904/DTD/svg10.dtd">
<svg version="1.0" xmlns="http://www.w3.org/2000/svg"
 width="1200.000000pt" height="1200.000000pt" viewBox="0 0 1200.000000 1200.000000"
 preserveAspectRatio="xMidYMid meet">
<metadata>
Created by potrace 1.11, written by Peter Selinger 2001-2013
</metadata>
<g transform="translate(0.000000,1200.000000) scale(0.100000,-0.100000)"
fill="#000000" stroke="none">
<path d="M5205 9444 c-955 -57 -1699 -212 -2069 -431 -136 -81 -342 -301 -592
-633 -81 -108 -254 -358 -309 -448 -1 -1 -22 7 -46 18 -42 19 -66 20 -484 20
-256 0 -454 -4 -474 -10 -57 -16 -100 -52 -127 -106 -25 -52 -25 -53 -22 -285
3 -230 3 -235 29 -284 16 -30 44 -63 71 -83 46 -32 105 -47 518 -124 36 -6 66
-12 67 -13 2 -1 -22 -60 -53 -131 -30 -71 -61 -147 -69 -169 -8 -22 -28 -78
-45 -125 -52 -140 -100 -289 -127 -390 -68 -257 -109 -442 -132 -595 -6 -38
-15 -99 -21 -135 -20 -133 -40 -430 -40 -600 0 -398 74 -899 173 -1175 21 -57
22 -83 28 -520 6 -427 8 -466 27 -538 24 -87 26 -93 55 -125 l20 -22 508 0
c449 0 509 2 523 16 24 23 36 49 58 123 19 60 21 102 25 444 l5 378 57 -6
c161 -15 401 -35 521 -45 74 -5 221 -17 325 -25 105 -8 267 -19 360 -25 94 -5
244 -15 335 -20 449 -28 1176 -50 1695 -50 516 0 1253 22 1705 50 91 5 242 15
335 20 327 20 859 62 1208 95 l47 4 0 -344 c0 -404 12 -499 72 -587 l19 -28
514 0 514 0 20 26 c12 15 31 57 43 93 21 63 22 89 28 536 5 404 8 476 22 515
65 176 128 481 163 790 23 203 20 666 -5 885 -41 367 -99 648 -202 980 -65
211 -196 563 -243 654 -20 41 -19 51 8 51 12 0 76 11 142 24 66 14 174 35 240
47 141 26 201 54 244 113 47 66 53 108 49 352 -3 208 -4 221 -26 260 -29 49
-90 91 -146 99 -22 3 -237 5 -476 3 -402 -3 -438 -4 -473 -22 -21 -10 -39 -17
-41 -15 -2 2 -51 74 -108 160 -239 359 -567 756 -718 870 -164 123 -479 241
-870 324 -205 44 -498 89 -745 114 -483 50 -731 61 -1355 60 -300 -1 -639 -8
-755 -15z m1360 -384 c914 -43 1636 -166 2005 -342 94 -45 114 -59 194 -142
383 -392 850 -1105 1094 -1668 l21 -48 -27 0 c-15 0 -112 -5 -217 -11 -206
-12 -662 -1 -1130 26 -438 26 -584 34 -865 50 -151 8 -351 20 -445 25 -557 32
-1662 37 -2185 10 -102 -5 -279 -14 -395 -19 -115 -6 -277 -15 -360 -20 -82
-6 -235 -15 -340 -21 -104 -6 -300 -17 -435 -25 -487 -29 -909 -38 -1145 -25
-121 7 -221 13 -223 14 -7 8 156 342 260 531 280 508 787 1178 976 1288 173
101 558 211 932 267 391 59 704 90 1105 109 238 12 941 12 1180 1z m-3769
-2815 c255 -49 456 -244 520 -505 18 -74 17 -230 -1 -309 -54 -226 -238 -417
-471 -487 -82 -25 -276 -25 -358 0 -233 70 -417 261 -471 487 -18 79 -19 235
-1 309 88 358 422 574 782 505z m6719 -15 c97 -30 184 -81 260 -152 83 -77
134 -155 176 -265 31 -83 33 -95 33 -223 0 -130 -1 -138 -35 -225 -43 -113
-92 -187 -175 -264 -78 -73 -143 -112 -249 -148 -70 -24 -96 -28 -200 -28
-106 0 -130 3 -209 29 -344 113 -535 473 -436 820 68 240 279 432 523 476 79
14 232 4 312 -20z"/>
</g>
</svg>
